nColumns=19
nRows=35
DataType=double
version=3
OpenSimVersion=4.1
endheader
time	ground_force_calcn_r_vx	ground_force_calcn_r_vy	ground_force_calcn_r_vz	ground_force_calcn_r_px	ground_force_calcn_r_py	ground_force_calcn_r_pz	ground_force_calcn_r_mx	ground_force_calcn_r_my	ground_force_calcn_r_mz	ground_force_calcn_l_vx	ground_force_calcn_l_vy	ground_force_calcn_l_vz	ground_force_calcn_l_px	ground_force_calcn_l_py	ground_force_calcn_l_pz	ground_force_calcn_l_mx	ground_force_calcn_l_my	ground_force_calcn_l_mz
1.29	-0.525776	7.61268	-3.49475	0.820042	0	-0.360955	-0.0500796	0.7251	-0.332871	-14.5577	23.1683	4.68854	1.1542	0	-0.592878	-1.25896	2.00362	0.405469
1.3	-0.811051	2.72825	-1.99288	-0.000648736	0	-1.64817e-05	1.42357e-20	-4.78867e-20	3.49793e-20	-21.487	60.1179	9.13332	1.13602	0	-0.57515	-0.969657	2.71297	0.412165
1.31	-0.346234	0.799832	-0.899331	-0.000648736	0	-1.64817e-05	1.7329e-20	-4.00315e-20	4.50114e-20	-19.28	147.571	15.3312	1.11939	0	-0.576315	-0.408956	3.1302	0.325198
1.32	-0.0631745	0.275987	-0.0878287	-0.000648736	0	-1.64817e-05	-7.22058e-22	3.15442e-21	-1.00385e-21	-3.67084	306.038	22.2375	1.10457	0	-0.581692	-0.0386815	3.22488	0.234328
1.33	-0.0106657	0.399285	0.621088	-0.000648736	0	-1.64817e-05	-5.88221e-22	2.20209e-20	3.42535e-20	10.0923	506.735	29.136	1.09332	0	-0.58549	0.0646059	3.24388	0.186515
1.34	-0.0158785	0.883991	1.11231	-0.000648736	0	-1.64817e-05	5.49006e-22	-3.05644e-20	-3.84587e-20	3.29147	679.015	36.9904	1.08673	0	-0.58799	0.0157244	3.24387	0.176715
1.35	0.232279	1.3197	1.08316	-0.000648736	0	-1.64817e-05	1.42158e-20	8.0767e-20	6.62905e-20	-24.6981	786.144	47.8838	1.08403	0	-0.590619	-0.0995543	3.16883	0.193013
1.36	0.503443	1.19033	0.629265	-0.000648736	0	-1.64817e-05	1.28172e-21	3.03048e-21	1.60205e-21	-61.8146	851.919	62.5594	1.084	0	-0.594007	-0.216073	2.97788	0.218676
1.37	0.361812	0.617867	0.198202	-0.000648736	0	-1.64817e-05	-5.9216e-21	-1.01123e-20	-3.24387e-21	-89.579	909.47	78.7478	1.0834	0	-0.597721	-0.267295	2.71377	0.234976
1.38	0.127607	0.190571	0.00448536	-0.000648736	0	-1.64817e-05	1.09074e-23	1.62894e-23	3.83393e-25	-99.2035	972.543	92.8707	1.07843	0	-0.601049	-0.252417	2.47457	0.236303
1.39	0.0276612	0.0387703	-0.03085	-0.000648736	0	-1.64817e-05	-4.13638e-24	-5.79762e-24	4.61323e-24	-96.7578	1038.78	103.168	1.06964	0	-0.603612	-0.218087	2.34136	0.232536
1.4	0.00425936	0.00576807	-0.0194746	-0.000648736	0	-1.64817e-05	7.85573e-23	1.06383e-22	-3.59179e-22	-88.1099	1097.06	109.962	1.05914	0	-0.605489	-0.18829	2.34441	0.234987
1.41	0.000486105	0.000714492	-0.00687425	-0.000648736	0	-1.64817e-05	2.43753e-24	3.58275e-24	-3.44703e-23	-77.1947	1138.65	114.095	1.04771	0	-0.60696	-0.166492	2.45583	0.246079
1.42	-0.000198989	0.000425228	0.00155959	-0.000648736	0	-1.64817e-05	-6.06364e-25	1.29576e-24	4.75242e-24	-67.7436	1162.59	116.203	1.03603	0	-0.608049	-0.152145	2.61106	0.26098
1.43	-0.00188992	0.00272107	0.0114703	-0.000648736	0	-1.64817e-05	2.82829e-23	-4.07211e-23	-1.71654e-22	-59.4349	1172.38	116.277	1.02415	0	-0.608767	-0.139128	2.74437	0.272186
1.44	-0.0108811	0.0155702	0.0294372	-0.000648736	0	-1.64817e-05	-1.47981e-22	2.11752e-22	4.00341e-22	-49.0199	1171.26	114.092	1.01166	0	-0.609266	-0.117776	2.8141	0.27412
1.45	-0.0427616	0.061139	0.0573894	-0.000648736	0	-1.64817e-05	2.44925e-21	-3.50185e-21	-3.28708e-21	-36.3831	1160.09	110.06	0.998778	0	-0.609659	-0.0881668	2.81124	0.266708
1.46	-0.099783	0.142629	0.0848318	-0.000648736	0	-1.64817e-05	1.32693e-21	-1.8967e-21	-1.1281e-21	-22.997	1137.15	104.76	0.985915	0	-0.610049	-0.0557904	2.75872	0.254147
1.47	-0.119454	0.170738	0.0919449	-0.000648736	0	-1.64817e-05	1.74959e-21	-2.50074e-21	-1.34668e-21	-9.65679	1101.69	98.2646	0.973156	0	-0.610471	-0.0236678	2.70013	0.240837
1.48	-0.0704194	0.100667	0.072482	-0.000648736	0	-1.64817e-05	4.09789e-22	-5.85805e-22	-4.21792e-22	3.43215	1056.1	90.5423	0.960249	0	-0.610855	0.00870504	2.6786	0.229644
1.49	-0.0228018	0.0326097	0.0428199	-0.000648736	0	-1.64817e-05	-1.05526e-21	1.50916e-21	1.98168e-21	17.6942	1003.57	81.927	0.946335	0	-0.611096	0.0478965	2.71655	0.221768
1.5	-0.0047307	0.00677327	0.0206006	-0.000648736	0	-1.64817e-05	9.86456e-24	-1.41238e-23	-4.29569e-23	34.2824	945.523	72.9323	0.930625	0	-0.611119	0.10177	2.80686	0.216505
1.51	-0.000760056	0.00107893	0.0112726	-0.000648736	0	-1.64817e-05	-5.98258e-24	8.4925e-24	8.87295e-23	51.7237	881.281	63.9657	0.913332	0	-0.610843	0.171276	2.91825	0.211814
1.52	-0.000518137	0.000622755	0.0148278	-0.000648736	0	-1.64817e-05	2.30893e-25	-2.77513e-25	-6.60759e-24	67.0209	809.447	55.2868	0.895416	0	-0.61027	0.249229	3.01007	0.205594
1.53	-0.00290214	0.00331801	0.0340678	-0.000648736	0	-1.64817e-05	4.54232e-25	-5.19324e-25	-5.33217e-24	77.8894	730.001	47.112	0.877921	0	-0.609563	0.325244	3.04828	0.196726
1.54	-0.0139615	0.015882	0.0731209	-0.000648736	0	-1.64817e-05	-9.71022e-23	1.10459e-22	5.08556e-22	83.1479	644.706	39.633	0.861234	0	-0.608873	0.389091	3.0169	0.185463
1.55	-0.0431161	0.0489666	0.124272	-0.000648736	0	-1.64817e-05	1.44981e-21	-1.64654e-21	-4.17875e-21	82.9783	556.033	32.915	0.845129	0	-0.60818	0.435881	2.92082	0.172901
1.56	-0.0731393	0.0830271	0.157728	-0.000648736	0	-1.64817e-05	-2.2116e-21	2.51059e-21	4.76941e-21	78.1243	466.69	26.9049	0.829444	0	-0.607368	0.4654	2.78016	0.160278
1.57	-0.0611155	0.0694293	0.145391	-0.000648736	0	-1.64817e-05	-3.00412e-22	3.41279e-22	7.14665e-22	69.3959	379.84	21.4899	0.814156	0	-0.606347	0.478492	2.61904	0.148175
1.58	-0.0264025	0.0304266	0.0978141	-0.000648736	0	-1.64817e-05	-2.49988e-22	2.88089e-22	9.26138e-22	58.0055	299.483	16.5369	0.800053	0	-0.605081	0.475112	2.45301	0.13545
1.59	-0.00860755	0.0130512	0.0483113	-0.000648736	0	-1.64817e-05	-1.79479e-23	2.72134e-23	1.00736e-22	45.9088	229.503	12.0493	0.788417	0	-0.603547	0.456282	2.281	0.119757
1.6	-0.0155785	0.0366998	0.0121751	-0.000648736	0	-1.64817e-05	1.58269e-22	-3.7285e-22	-1.23693e-22	35.4636	171.079	8.25411	0.779309	0	-0.601555	0.432191	2.08492	0.100592
1.61	-0.0888783	0.177392	-0.0247697	-0.000648736	0	-1.64817e-05	-0	0	-0	27.56	123.199	5.3891	0.773982	0	-0.598643	0.412842	1.84549	0.0807275
1.62	-0.451851	0.69927	-0.117519	-0.000648736	0	-1.64817e-05	6.44571e-21	-9.97517e-21	1.67642e-21	20.9817	85.4434	3.44495	0.775391	0	-0.594664	0.384672	1.56649	0.0631587
1.63	-1.85447	2.40557	-0.426495	-0.000648736	0	-1.64817e-05	4.42536e-21	-5.74047e-21	1.01776e-21	14.5036	57.2721	2.19135	0.782945	0	-0.589784	0.323732	1.27836	0.0489127
